<?xml version="1.0" encoding="UTF-8"?>
<svg version="1.1" xmlns="http://www.w3.org/2000/svg" width="757" height="453">
<path d="M0 0 C1.30904297 0.00064453 2.61808594 0.00128906 3.96679688 0.00195312 C4.98688843 0.01440063 4.98688843 0.01440063 6.02758789 0.02709961 C8.0884555 0.05058735 10.14801774 0.04766947 12.20898438 0.04101562 C28.03946652 0.12650178 28.03946652 0.12650178 31.70353699 3.76338196 C36.11964627 10.02719292 37.50054363 17.61965839 39.26953125 24.94921875 C39.63533548 26.41813336 40.00246799 27.88671772 40.37081909 29.35499573 C41.15748549 32.50141357 41.93555466 35.64978214 42.70678711 38.80001831 C43.92801531 43.78756396 45.16811183 48.77028847 46.41210938 53.75219727 C46.83859765 55.46094386 47.26505002 57.16969943 47.69146729 58.87846375 C47.90478951 59.7332752 48.11811172 60.58808666 48.33789825 61.4688015 C48.99313581 64.0976014 49.64645655 66.72687098 50.29925537 69.35627747 C54.82035016 87.5567702 59.48745481 105.71910219 64.16881561 123.87891388 C65.76980765 130.09115594 67.36751742 136.30424307 68.96539688 142.5172863 C69.4902715 144.55726796 70.01579727 146.59708083 70.54147339 148.63685608 C71.16878463 151.07365053 71.79431542 153.51090431 72.41772461 155.94869995 C73.00356496 158.23423311 73.59557761 160.5181926 74.19360352 162.80056763 C74.46938232 163.86741791 74.74516113 164.93426819 75.02929688 166.03344727 C75.2736145 166.96794205 75.51793213 167.90243683 75.76965332 168.86524963 C76.29296875 171.36328125 76.29296875 171.36328125 76.29296875 175.36328125 C76.95296875 175.36328125 77.61296875 175.36328125 78.29296875 175.36328125 C78.39889847 174.13919556 78.50482819 172.91510986 78.6139679 171.65393066 C79.29692242 165.55579428 80.72641749 159.67236793 82.15698242 153.71289062 C82.44985138 152.47401596 82.74272034 151.2351413 83.04446411 149.95872498 C83.84370083 146.57843457 84.64951575 143.19974382 85.45657516 139.82131386 C86.30775756 136.25316452 87.15283246 132.68356896 87.99861145 129.11413574 C89.60561585 122.33623681 91.2181237 115.55965968 92.83259708 108.78353643 C94.64661227 101.16866105 96.45424187 93.55227477 98.26142156 85.9357748 C100.47612182 76.60259417 102.69256052 67.26982608 104.91239929 57.93786621 C105.06912343 57.27893545 105.22584758 56.62000468 105.38732094 55.94110632 C106.1518865 52.72773448 106.9180846 49.51476239 107.68620586 46.30223846 C109.13557516 40.24016556 110.57175846 34.17569175 111.97720337 28.10327148 C112.24522168 26.95668816 112.51323999 25.81010483 112.78938007 24.62877655 C113.28880717 22.49113472 113.78258138 20.35216049 114.26941967 18.21161652 C117.00391952 6.57602884 117.00391952 6.57602884 121.16796875 2.55078125 C127.10516933 -0.76706614 134.5256301 0.17943063 141.10546875 0.17578125 C142.25595703 0.16353516 143.40644531 0.15128906 144.59179688 0.13867188 C156.65066498 0.1179403 156.65066498 0.1179403 162.29296875 2.36328125 C166.26278453 7.16233865 167.5109678 12.01356336 168.86694336 18.01245117 C169.09331293 18.96805498 169.3196825 19.92365879 169.55291176 20.90822029 C170.29938295 24.07165158 171.02853845 27.23881402 171.7578125 30.40625 C172.28344251 32.64823182 172.81023333 34.88994177 173.33811951 37.13139343 C174.44351566 41.8333267 175.54197621 46.53680176 176.63494873 51.24163818 C178.23026284 58.10454711 179.84649925 64.96237823 181.46923828 71.81884766 C184.34685422 83.98389903 187.2092476 96.15248428 190.06756592 108.32208252 C191.13786737 112.87780752 192.20926397 117.43327467 193.28068638 121.98873615 C194.57814257 127.50541915 195.87505516 133.02222989 197.171875 138.5390625 C197.41144991 139.5581048 197.65102482 140.5771471 197.89785957 141.62706947 C198.99260789 146.28445276 200.08603314 150.94213262 201.17556763 155.60073853 C201.86713549 158.55648773 202.56642496 161.51012305 203.27633667 164.46151733 C203.55244781 165.62172394 203.82855896 166.78193054 204.11303711 167.97729492 C204.46137856 169.42213509 204.46137856 169.42213509 204.8167572 170.89616394 C205.29296875 173.36328125 205.29296875 173.36328125 205.29296875 177.36328125 C205.95296875 177.36328125 206.61296875 177.36328125 207.29296875 177.36328125 C207.42241379 176.19016891 207.55185883 175.01705658 207.68522644 173.80839539 C208.1810062 169.86138752 209.01059752 166.09428241 210.0168457 162.24145508 C210.19009589 161.57239419 210.36334608 160.9033333 210.54184628 160.21399784 C211.11689417 157.99816841 211.69907748 155.78427973 212.28125 153.5703125 C212.69664015 151.9751443 213.11156542 150.37985497 213.52606201 148.78445435 C214.64671117 144.47624639 215.77352013 140.16967272 216.90175247 135.86344528 C218.08183755 131.35641268 219.25748124 126.84822212 220.43334961 122.34008789 C220.9146156 120.49509893 221.39589314 118.65011299 221.87718201 116.80513 C222.1176721 115.8832168 222.35816219 114.9613036 222.60593987 114.01145363 C223.34501082 111.17941913 224.08486813 108.34759093 224.82484436 105.51579285 C228.01349193 93.30742817 231.1686543 81.09083597 234.30002785 68.86766243 C235.66081574 63.55929613 237.02645081 58.25217434 238.39196301 52.94502163 C239.4794424 48.71657863 240.56367224 44.48735453 241.64077759 40.2562561 C242.65172586 36.28543006 243.67115765 32.31687708 244.69690704 28.3498497 C245.06966344 26.9018514 245.43929045 25.45304308 245.80544281 24.00336075 C250.56276853 5.18341473 250.56276853 5.18341473 256.29296875 1.36328125 C262.01709593 -0.18121697 267.95559035 0.14033236 273.84057617 0.12304688 C275.85311479 0.11329266 277.86465148 0.08220428 279.87695312 0.05078125 C281.14990234 0.045625 282.42285156 0.04046875 283.734375 0.03515625 C285.47763062 0.0211377 285.47763062 0.0211377 287.25610352 0.00683594 C290.67881949 0.40856962 291.83800924 1.00469345 294.29296875 3.36328125 C296.5795245 12.21335188 292.38786681 21.78679106 289.640625 30.12890625 C289.14794393 31.66503096 288.6567538 33.20163455 288.16694641 34.73867798 C287.12352265 38.00321992 286.07057899 41.26446406 285.00970459 44.52337646 C283.33175678 49.6786165 281.67575252 54.84073434 280.02392578 60.00439453 C278.35234704 65.2274357 276.68013372 70.4502551 275.00079346 75.67080688 C270.78961917 88.76606291 266.68155134 101.88995713 262.64874268 115.04138184 C260.99896668 120.41893907 259.33919916 125.79340942 257.6796875 131.16796875 C257.34235596 132.26057007 257.00502441 133.35317139 256.6574707 134.47888184 C252.36263574 148.3833481 248.05927921 162.28513739 243.72204208 176.1764431 C242.48456345 180.14022586 241.24984603 184.10481414 240.0223999 188.07171631 C238.87213647 191.7887993 237.71396255 195.50332584 236.54984093 199.21609116 C236.12132929 200.58745938 235.6956214 201.95970737 235.27295876 203.33288956 C229.9573197 220.58704728 229.9573197 220.58704728 224.29296875 224.36328125 C221.51001046 224.55932935 218.82962668 224.64332567 216.046875 224.62890625 C215.23935287 224.6308197 214.43183075 224.63273315 213.59983826 224.63470459 C211.89264616 224.63606501 210.18544368 224.63237854 208.47827148 224.62402344 C205.86874046 224.61333561 203.25990003 224.62391618 200.65039062 224.63671875 C198.9908839 224.63539686 197.3313776 224.63283385 195.671875 224.62890625 C194.89260147 224.63295471 194.11332794 224.63700317 193.31044006 224.64117432 C189.41530963 224.60757177 186.59964307 224.4566617 183.29296875 222.36328125 C179.58863974 216.23213575 177.94412244 209.95723691 176.31958008 203.02661133 C176.05059906 201.91444748 175.78161804 200.80228363 175.50448608 199.65641785 C174.6187284 195.98403999 173.74686052 192.30851219 172.875 188.6328125 C172.2529587 186.04224167 171.63013482 183.45187144 171.00627136 180.86174011 C169.52892353 174.72076941 168.06146313 168.57748141 166.59767407 162.43326634 C164.9661624 155.58683345 163.32462817 148.74281958 161.68174005 141.89910913 C160.87830416 138.55211244 160.07533024 135.20500496 159.27243042 131.85787964 C159.1150502 131.20180092 158.95766998 130.5457222 158.79552066 129.8697623 C157.08989529 122.75832822 155.38804079 115.64599262 153.68603516 108.53369141 C149.61022707 91.49706061 149.61022707 91.49706061 145.50980186 74.46634483 C145.12724194 72.88111483 144.7459381 71.29558109 144.36597633 69.70972633 C143.86019384 67.59952544 143.35008072 65.49042309 142.83862305 63.3815918 C142.56108688 62.23015182 142.28355072 61.07871185 141.99760437 59.89237976 C141.53911796 57.44563595 141.53911796 57.44563595 140.29296875 56.36328125 C137.85878469 66.43405078 135.42559722 76.50506057 132.99330139 86.57628632 C131.56674442 92.48263672 130.13899605 98.38869773 128.7104845 104.29457569 C124.05005758 123.56497539 119.40110863 142.83757964 114.85155678 162.1345005 C114.26128777 164.63667813 113.66974312 167.13855031 113.0776825 169.64030457 C112.88726285 170.4449883 112.6968432 171.24967203 112.50065327 172.07874012 C112.12404136 173.67011123 111.74737832 175.26147024 111.37066174 176.85281658 C110.28572561 181.43972899 109.20978145 186.02863783 108.14024353 190.61916351 C107.47709288 193.4563523 106.80581248 196.29157244 106.13235855 199.12633133 C105.68189003 201.03388263 105.24159663 202.94382806 104.80172729 204.85385132 C101.02947491 220.64872329 101.02947491 220.64872329 96.39547729 223.55215454 C93.07956796 224.83139911 89.70884731 224.6683163 86.203125 224.6640625 C85.42158554 224.66834763 84.64004608 224.67263275 83.83482361 224.67704773 C82.1848955 224.6827804 80.53494212 224.68329912 78.88500977 224.67895508 C76.36756044 224.67579642 73.85128841 224.69926161 71.33398438 224.72460938 C69.72786606 224.7268827 68.1217446 224.72758571 66.515625 224.7265625 C65.76652359 224.73577225 65.01742218 224.74498199 64.24562073 224.75447083 C59.72334336 224.71465462 56.67906455 224.45213707 53.29296875 221.36328125 C49.06662777 214.4079944 47.22191698 206.03084651 44.93359375 198.29296875 C44.51254189 196.88598179 44.09091467 195.4791669 43.66876221 194.07250977 C42.76274193 191.0497913 41.86029729 188.02603801 40.96069336 185.00140381 C39.52080785 180.16075619 38.07284164 175.32255107 36.62304688 170.48486328 C36.37607056 169.66071363 36.12909424 168.83656399 35.87463379 167.98744011 C35.36905749 166.30042676 34.86345219 164.61342211 34.3578186 162.92642593 C33.58297149 160.34034483 32.8088817 157.75403795 32.03491211 155.16769409 C27.10622675 138.70420824 22.10883474 122.26186638 17.10161972 105.82212543 C15.31418758 99.95295297 13.53038985 94.08268613 11.74902344 88.21166992 C11.37847776 86.99049548 11.37847776 86.99049548 11.00044632 85.74465084 C10.02378124 82.52576063 9.04718972 79.30684813 8.07077789 76.08788109 C5.31134417 66.9917436 2.54070527 57.89924386 -0.25109863 48.81298828 C-1.60798905 44.38941826 -2.95436062 39.96270296 -4.29760742 35.53497314 C-4.89304604 33.58109527 -5.49328846 31.62867335 -6.09887695 29.67791748 C-12.52226668 8.9766995 -12.52226668 8.9766995 -10.70703125 3.36328125 C-7.49035753 -0.06939063 -4.54741407 -0.01137853 0 0 Z " fill="#FFFFFF" transform="translate(247.70703125,5.63671875)"/>
<path d="M0 0 C4.29771852 1.78399419 8.27715256 4.06701777 12.3125 6.375 C13.47956023 7.02463337 14.6477074 7.67231764 15.81689453 8.31811523 C18.1488875 9.60809339 20.47559758 10.9062393 22.80029297 12.20947266 C101.04767786 55.99600713 190.28276761 82.06532651 292.875 95.3125 C294.18275391 95.45977539 295.49050781 95.60705078 296.83789062 95.75878906 C301.22217676 96.21966798 305.60765659 96.62495887 310 97 C310.99375641 97.08613556 311.98751282 97.17227112 313.01138306 97.26101685 C332.57254947 98.90859665 352.01786919 99.36620062 371.63441849 99.31805801 C373.97786783 99.31240258 376.32130988 99.30959166 378.6647644 99.30697632 C401.15272041 99.27051749 423.50556221 98.91200847 445.86065674 96.25323486 C448.10788491 95.98722962 450.35625064 95.7329589 452.60498047 95.47998047 C522.09828851 87.57430086 597.96389056 72.51805472 661 41 C665.92640344 40.58748313 670.47717008 40.3473586 675.0625 42.3125 C677.31571794 44.27498014 678.78096069 46.0172307 679.44140625 48.98046875 C679.69619027 53.62411304 679.19429322 56.36045132 676.0625 59.8828125 C672.00334366 64.27002289 667.44862045 67.47366252 662.4375 70.6875 C661.52419922 71.28344971 660.61089844 71.87939941 659.66992188 72.4934082 C624.58048205 95.18477889 587.55888371 112.68456438 548 126 C547.01177246 126.34192383 546.02354492 126.68384766 545.00537109 127.03613281 C463.41292704 155.25483631 374.00260159 162.71649146 117.02734375 98.98828125 C107.33976875 94.2577769 97.9408565 89.07430464 88.66796875 83.57666016 C85.91563588 81.95014427 83.14732254 80.35389226 80.375 78.76171875 C51.23376644 61.93094833 23.99091914 41.76764429 -1.24560547 19.52880859 C-3.67325486 17.41331451 -6.14402827 15.34966591 -8.61938477 13.2902832 C-10.97568231 11.08815544 -11.0105923 9.85435583 -11.25 6.5625 C-11 3 -11 3 -10 1.0625 C-6.67635601 -0.70318587 -3.61262872 -0.62894947 0 0 Z " fill="#F2971F" transform="translate(11,297)"/>
<path d="M0 0 C0.69516724 0.00149048 1.39033447 0.00298096 2.10656738 0.0045166 C25.77635299 0.09545505 49.27302079 4.01805226 67.04296875 21.0703125 C86.08560054 40.9800951 87.46942579 67.85506233 87.49246025 93.89777374 C87.49617799 97.27976104 87.51304601 100.66146895 87.53321838 104.043396 C87.58814246 113.64639073 87.61933557 123.24942324 87.64379883 132.85253906 C87.65973857 138.75848348 87.69000928 144.66422298 87.72856331 150.57006073 C87.74013999 152.80415411 87.74614301 155.03828416 87.74624443 157.27240753 C87.74716335 172.11339979 88.40028777 184.76818689 95.3125 198.1875 C100.06753261 207.52713394 100.06753261 207.52713394 100.1875 212.3125 C97.51602758 218.57696319 91.63774501 221.63841893 86.1875 225.3125 C85.31996094 225.92222656 84.45242187 226.53195313 83.55859375 227.16015625 C78.76664718 230.33228989 75.0773938 231.97917798 69.29296875 231.9140625 C63.81746722 230.34963349 60.8136252 225.74440917 57.75 221.25 C57.36529541 220.68579346 56.98059082 220.12158691 56.58422852 219.5402832 C53.08646873 214.32903708 50.04315684 208.90062848 47.1875 203.3125 C46.424375 204.281875 45.66125 205.25125 44.875 206.25 C30.82970749 222.52678758 8.69175601 234.37276245 -12.8125 236.3125 C-35.85971256 237.73345596 -57.17390027 235.97727281 -75.49609375 220.5078125 C-82.28084658 214.0777432 -87.16303014 206.89293295 -90.8125 198.3125 C-91.10898438 197.6421875 -91.40546875 196.971875 -91.7109375 196.28125 C-98.69225451 178.30954285 -96.89907654 155.71244937 -89.53125 138.28125 C-86.01538565 131.32765162 -81.28875805 125.80710397 -75.8125 120.3125 C-75.13574219 119.61253906 -74.45898438 118.91257812 -73.76171875 118.19140625 C-64.14592067 108.90156743 -51.66761148 103.4555997 -38.8125 100.3125 C-37.97074219 100.09980469 -37.12898438 99.88710937 -36.26171875 99.66796875 C-10.05875035 94.00356345 17.43590224 98.7836942 43.1875 104.3125 C43.26283781 100.13569455 43.31664847 95.95927089 43.35229492 91.78198242 C43.36718738 90.36719863 43.38750836 88.95245933 43.41381836 87.5378418 C43.6609919 73.88513872 42.4585999 60.71573977 34.1875 49.3125 C25.63815819 40.48737297 12.52026163 37.37040587 0.6328125 36.9765625 C-22.7850608 36.68447752 -44.15267455 40.2651858 -65.62109375 50.0078125 C-68.57983992 51.2173856 -70.47366983 51.69674657 -73.625 51.625 C-74.37394531 51.62113281 -75.12289062 51.61726563 -75.89453125 51.61328125 C-77.8125 51.3125 -77.8125 51.3125 -79.8125 49.3125 C-81.12721119 45.28270387 -80.99637253 41.19698442 -81 37 C-81.01224609 36.26587891 -81.02449219 35.53175781 -81.03710938 34.77539062 C-81.06673311 23.64674014 -81.06673311 23.64674014 -77.24414062 19.68847656 C-72.30698999 15.72635116 -66.91140892 13.38944082 -61 11.25 C-60.08782715 10.91274902 -59.1756543 10.57549805 -58.23583984 10.22802734 C-52.20414872 8.04861381 -46.12911693 6.10860051 -39.9375 4.4375 C-39.23906982 4.24663818 -38.54063965 4.05577637 -37.82104492 3.85913086 C-25.37980577 0.70559752 -12.78409336 -0.06835592 0 0 Z M-40.8125 140.3125 C-48.96158921 148.90738184 -51.21704813 159.18465037 -51.0859375 170.76171875 C-50.33232447 180.54792228 -47.34023465 188.84263438 -39.8125 195.3125 C-29.86215815 203.08932029 -17.94642136 203.47605937 -5.8125 202.3125 C9.76702138 199.89166796 24.67475739 193.72576189 34.8671875 181.2578125 C40.90953748 172.8105471 44.34072895 162.96631321 44.28515625 152.57421875 C44.28193359 151.50751953 44.27871094 150.44082031 44.27539062 149.34179688 C44.26701172 148.23900391 44.25863281 147.13621094 44.25 146 C44.24548828 144.87787109 44.24097656 143.75574219 44.23632812 142.59960938 C44.22457313 139.8371849 44.20814077 137.07487002 44.1875 134.3125 C18.52540377 127.28430284 -18.72376802 121.62534663 -40.8125 140.3125 Z " fill="#FFFFFF" transform="translate(126.8125,-0.3125)"/>
<path d="M0 0 C3.92167441 3.42085452 5.75016313 6.85697644 6.16113281 12.02709961 C6.20664935 14.33071273 6.23519503 16.63347648 6.25 18.9375 C6.2809375 20.13536133 6.2809375 20.13536133 6.3125 21.35742188 C6.34329824 26.00410707 6.1924161 29.32872149 3 33 C-3.77276635 34.24167383 -8.84026691 32.06106483 -14.97949219 29.42773438 C-35.51844654 20.73778355 -62.75695693 17.76600199 -84.1328125 24.80078125 C-91.61852358 27.9317258 -97.43485486 31.77035551 -101.109375 39.26171875 C-103.21058993 45.72203307 -103.281167 54.16141519 -100.5 60.4375 C-90.10733364 77.22290615 -64.77008927 81.52522512 -47.31811523 86.94506836 C-0.18020017 101.6446785 -0.18020017 101.6446785 11.046875 122.66015625 C18.70357247 138.07761907 20.66983276 155.10402546 16.1015625 171.8828125 C9.03328163 191.88454347 -4.12731158 205.18304296 -22.90942383 214.37011719 C-38.00406914 221.34382526 -54.57970086 223.38910738 -71.0625 223.3125 C-72.96104736 223.30512817 -72.96104736 223.30512817 -74.89794922 223.29760742 C-97.49106425 223.0180961 -128.277994 219.53655683 -146 204 C-148.01468856 200.77307595 -148.25681513 198.23515312 -148.265625 194.46484375 C-148.26820313 193.40845703 -148.27078125 192.35207031 -148.2734375 191.26367188 C-148.26570312 190.16603516 -148.25796875 189.06839844 -148.25 187.9375 C-148.25773438 186.83599609 -148.26546875 185.73449219 -148.2734375 184.59960938 C-148.27085937 183.54451172 -148.26828125 182.48941406 -148.265625 181.40234375 C-148.26336914 180.43804443 -148.26111328 179.47374512 -148.25878906 178.48022461 C-148 176 -148 176 -146 173 C-139.19790875 172.18010507 -134.20964417 174.14682538 -128 176.75 C-119.09310551 180.30526317 -110.39354585 183.09115111 -101 185 C-99.94941406 185.22429687 -98.89882813 185.44859375 -97.81640625 185.6796875 C-77.44658011 189.31982779 -52.84120674 189.67354922 -35 178 C-29.15384961 173.16288269 -26.05379813 167.50969822 -25 160 C-24.77851858 153.09555738 -25.74187313 146.59027829 -30 141 C-42.24045702 128.32816124 -63.24963899 124.60675837 -79.48144531 119.68261719 C-102.18080011 112.77162172 -126.27382749 104.46464728 -138.24926758 82.3215332 C-146.5937329 66.0637173 -148.41933827 49.61770541 -143 32 C-136.0397968 13.85588056 -122.43460384 1.45942788 -104.91699219 -6.62475586 C-74.97080153 -19.60775624 -28.07328595 -18.29859397 0 0 Z " fill="#FFFFFF" transform="translate(707,14)"/>
<path d="M0 0 C2.40262656 -0.00961916 4.80436345 -0.04067752 7.20678711 -0.07226562 C41.22821086 -0.30360006 41.22821086 -0.30360006 52.23999023 8.65429688 C57.82129113 14.78586688 56.91787448 23.21671233 56.63354492 30.99365234 C54.21575996 72.19449902 35.51465239 111.32496981 5.50170898 139.24023438 C2.48846704 140.74685535 -0.18115478 140.4179381 -3.49829102 140.24023438 C-5.49829102 138.24023438 -5.49829102 138.24023438 -5.76977539 135.52075195 C-5.46622971 131.85281735 -4.54305212 129.15761829 -3.15454102 125.75195312 C-2.64867718 124.48787613 -2.142818 123.22379728 -1.63696289 121.9597168 C-1.36940186 121.30232513 -1.10184082 120.64493347 -0.82617188 119.96762085 C0.58245581 116.49678258 1.95007495 113.01000752 3.31420898 109.52148438 C3.58865845 108.8197258 3.86310791 108.11796722 4.14587402 107.39494324 C16.59380623 75.76824693 16.59380623 75.76824693 18.50170898 42.24023438 C16.47408991 38.09386727 14.70008099 36.19947464 10.50170898 34.24023438 C-11.05926598 27.77194189 -35.36136614 31.11134246 -57.42152405 33.28720093 C-63.71948619 33.90620606 -70.01948242 34.49090589 -76.33032227 34.96289062 C-77.63332275 35.06480713 -78.93632324 35.16672363 -80.27880859 35.27172852 C-83.49829102 35.24023438 -83.49829102 35.24023438 -86.49829102 33.24023438 C-86.3783008 27.24072359 -86.3783008 27.24072359 -84.15014648 24.70751953 C-79.89671538 21.18007809 -75.5862984 18.29111213 -70.68579102 15.74023438 C-69.95150879 15.35714111 -69.21722656 14.97404785 -68.46069336 14.5793457 C-47.1644261 3.81829443 -23.63619241 0.05690326 0 0 Z " fill="#F2971F" transform="translate(700.498291015625,281.759765625)"/>
</svg>
