<svg width="429" height="429" viewBox="0 0 429 429" fill="none" xmlns="http://www.w3.org/2000/svg">
<path d="M359.293 56.4616C400.026 93.5602 425.318 146.993 428.05 202.062C430.424 256.539 413.725 311.973 377.05 353.062C376.621 353.544 376.192 354.026 375.751 354.523C366.519 364.868 357.005 374.523 346.05 383.062C345.047 383.847 344.044 384.632 343.011 385.441C342.034 386.182 341.057 386.923 340.05 387.687C339.163 388.36 338.276 389.033 337.363 389.726C336.599 390.167 335.836 390.608 335.05 391.062C331.499 389.878 331.121 389.078 329.136 386.015C328.262 384.683 328.262 384.683 327.371 383.325C326.729 382.33 326.087 381.336 325.425 380.312C323.975 378.101 322.523 375.892 321.07 373.683C320.677 373.084 320.284 372.485 319.879 371.868C315.218 364.772 310.457 357.744 305.697 350.714C304.093 348.345 302.49 345.976 300.887 343.606C298.699 340.369 296.51 337.132 294.32 333.896C289.578 326.887 284.841 319.874 280.103 312.861C277.503 309.011 274.901 305.161 272.3 301.312C271.258 299.77 270.217 298.228 269.175 296.687C268.402 295.542 268.402 295.542 267.613 294.374C257.717 279.728 247.821 265.083 237.925 250.437C237.152 249.292 237.152 249.292 236.363 248.124C235.321 246.582 234.279 245.04 233.237 243.498C230.636 239.649 228.035 235.799 225.434 231.95C219.642 223.379 213.851 214.807 208.061 206.235C205.437 202.349 202.812 198.465 200.186 194.581C199.16 193.064 198.134 191.547 197.109 190.03C196.606 189.287 196.103 188.544 195.585 187.778C192.553 183.291 189.527 178.799 186.508 174.304C184.583 171.439 182.655 168.577 180.727 165.715C179.832 164.384 178.938 163.052 178.046 161.719C170.632 148.818 170.632 148.818 159.05 141.062C153.744 140.477 150.519 140.907 146.05 144.062C145.39 144.062 144.73 144.062 144.05 144.062C143.741 144.845 143.431 145.629 143.113 146.437C142.05 149.062 142.05 149.062 141.05 151.062C140.948 152.984 140.911 154.911 140.903 156.836C140.896 158.065 140.889 159.295 140.881 160.562C140.878 161.932 140.876 163.302 140.873 164.672C140.867 166.109 140.86 167.546 140.853 168.983C140.836 172.895 140.825 176.806 140.817 180.718C140.812 183.162 140.806 185.606 140.799 188.05C140.78 195.697 140.766 203.345 140.758 210.992C140.748 219.818 140.722 228.644 140.681 237.47C140.651 244.292 140.636 251.114 140.633 257.937C140.631 262.011 140.622 266.085 140.597 270.159C140.573 273.995 140.569 277.83 140.579 281.666C140.58 283.07 140.574 284.475 140.56 285.88C140.431 296.184 140.431 296.184 145.05 305.062C148.857 308.533 152.743 308.515 157.683 308.347C162.208 307.802 164.33 305.862 167.3 302.562C170.449 298.063 170.218 293.84 170.255 288.551C170.265 287.683 170.275 286.814 170.285 285.919C170.317 283.046 170.342 280.173 170.366 277.3C170.387 275.309 170.408 273.318 170.429 271.327C170.485 266.084 170.534 260.841 170.582 255.599C170.632 250.25 170.688 244.901 170.743 239.552C170.851 229.055 170.952 218.559 171.05 208.062C173.993 210.967 176.675 213.689 178.933 217.159C179.45 217.946 179.967 218.732 180.5 219.542C181.053 220.394 181.606 221.246 182.175 222.124C183.423 224.021 184.671 225.917 185.921 227.812C186.587 228.824 187.254 229.836 187.94 230.878C191.66 236.491 195.45 242.056 199.238 247.624C200.048 248.816 200.858 250.008 201.668 251.201C203.31 253.617 204.952 256.033 206.594 258.449C210.189 263.737 213.778 269.028 217.368 274.319C219.345 277.233 221.322 280.147 223.3 283.062C224.092 284.228 224.883 285.395 225.675 286.562C226.067 287.139 226.459 287.717 226.863 288.312C268.425 349.562 268.425 349.562 269.612 351.311C270.405 352.479 271.197 353.647 271.99 354.815C273.957 357.713 275.923 360.612 277.888 363.511C281.596 368.983 285.312 374.449 289.049 379.901C290.814 382.478 292.576 385.057 294.338 387.637C295.179 388.866 296.022 390.094 296.867 391.321C298.038 393.022 299.203 394.727 300.366 396.433C301.031 397.401 301.696 398.37 302.38 399.368C303.94 401.884 305.054 404.281 306.05 407.062C262.442 431.964 204.42 433.25 157.077 420.78C103.222 405.8 56.3273 369.866 28.4016 321.343C-0.295938 269.879 -7.63817 210.928 8.16577 154.068C12.3793 139.743 17.9144 126.166 25.0501 113.062C25.6636 111.908 26.2772 110.754 26.9094 109.566C54.0673 60.1316 101.066 23.6839 155.016 7.89767C227.62 -12.1083 303.33 6.54618 359.293 56.4616ZM262.241 122.718C257.398 128.2 256.879 132.572 256.762 139.793C256.744 140.686 256.726 141.58 256.708 142.5C256.553 150.765 256.466 159.032 256.398 167.299C256.352 172.845 256.285 178.389 256.165 183.934C256.05 189.306 255.99 194.677 255.967 200.05C255.95 202.087 255.913 204.123 255.856 206.159C255.49 219.954 257.302 228.274 266.737 238.58C268.619 240.703 270.183 243.01 271.757 245.366C272.543 246.519 272.543 246.519 273.345 247.695C273.846 248.434 274.347 249.174 274.863 249.937C275.383 250.7 275.903 251.463 276.439 252.249C278.558 255.364 280.67 258.482 282.735 261.633C283.276 262.458 283.817 263.282 284.374 264.132C284.864 264.885 285.353 265.638 285.857 266.414C286.251 266.958 286.645 267.501 287.05 268.062C287.38 268.062 287.71 268.062 288.05 268.062C288.144 250.19 288.214 232.318 288.257 214.446C288.278 206.147 288.306 197.848 288.352 189.55C288.392 182.315 288.417 175.081 288.426 167.847C288.432 164.017 288.444 160.188 288.473 156.359C288.5 152.751 288.508 149.144 288.502 145.537C288.504 143.588 288.526 141.639 288.548 139.69C288.516 132.931 288.217 128.498 284.05 123.062C277.021 117.255 269.195 116.35 262.241 122.718Z" fill="white"/>
</svg>
