<svg xmlns="http://www.w3.org/2000/svg"  viewBox="0 0 24 24" width="48px" height="48px"><path fill="#999BCD" d="M12,6C5.2709961,6,0,8.6357422,0,12s5.2709961,6,12,6s12-2.6357422,12-6S18.7290039,6,12,6z"/><path fill="#FFF" d="M12,6.25c4.7026978,0,8.7215347,1.2301636,10.7900162,3.0809326 C20.8563004,7.3430176,16.796875,6,12,6S3.1436985,7.3430176,1.2099826,9.3309326C3.2784641,7.4801636,7.2973022,6.25,12,6.25z" opacity=".2"/><path fill="#010101" d="M11.9999981,17.75c-4.7026978,0-8.7215338-1.2301636-10.7900152-3.0809326 C3.1436985,16.6569824,7.2031231,18,11.9999981,18s8.8563023-1.3430176,10.7900181-3.3309326 C20.7215347,16.5198364,16.7026958,17.75,11.9999981,17.75z" opacity=".1"/><path fill="#FFF" d="M9.5786133,9.7636719C9.1992188,9.2783203,8.6289063,9,8.0126953,9H5.5258789l-1.7491455,7h1.0302734 l0.5001221-2h1.7543945c1.3217773,0,2.4692383-0.8959961,2.7900391-2.1782227l0.0883789-0.3535156 C10.0893555,10.8706055,9.9575195,10.2495117,9.5786133,9.7636719z M8.9702148,11.2255859l-0.0883789,0.3530273 C8.6723633,12.4155273,7.9238281,13,7.0615234,13H5.5571289l0.75-3h1.7055664c0.3061523,0,0.5893555,0.1381836,0.777832,0.3793945 C8.9785156,10.6206055,9.0439453,10.9291992,8.9702148,11.2255859z"/><path fill="#FFF" d="M20.0786133,9.7636719C19.6992188,9.2783203,19.1289063,9,18.5126953,9h-2.4868164l-1.7491455,7h1.0302734 l0.5001221-2h1.7543945c1.3217773,0,2.4692383-0.8959961,2.7900391-2.1782227l0.0883789-0.3535156 C20.5893555,10.8706055,20.4575195,10.2495117,20.0786133,9.7636719z M19.4702148,11.2255859l-0.0883789,0.3530273 C19.1723633,12.4155273,18.4238281,13,17.5615234,13h-1.5043945l0.75-3h1.7055664 c0.3061523,0,0.5893555,0.1381836,0.777832,0.3793945C19.4785156,10.6206055,19.5439453,10.9291992,19.4702148,11.2255859z"/><path fill="#FFF" d="M14.6953125,9.6103516C14.3793945,9.2226563,13.9116211,9,13.4111328,9h-1.5849609l0.3635254-2h-1.0158691 l-1.272522,7h1.0158691l0.7271729-4h1.7667847c0.1982422,0,0.3833008,0.0878906,0.5083008,0.2416992 s0.1738281,0.3530273,0.1381836,0.5268555L13.2453613,14h1.0310669l0.7557983-3.0078125 C15.1337891,10.5024414,15.0107422,9.9985352,14.6953125,9.6103516z"/><linearGradient id="IjCpkCUOOKiTObaCsZe9Xa" x1="1.866" x2="22.134" y1="7.274" y2="16.726" gradientUnits="userSpaceOnUse"><stop offset="0" stop-color="#fff" stop-opacity=".2"/><stop offset="1" stop-color="#fff" stop-opacity="0"/></linearGradient><path fill="url(#IjCpkCUOOKiTObaCsZe9Xa)" d="M12,6C5.2709961,6,0,8.6357422,0,12s5.2709961,6,12,6s12-2.6357422,12-6S18.7290039,6,12,6z"/></svg>