<?xml version="1.0" encoding="utf-8"?>
<svg viewBox="279.161 116.191 191.373 191.373" xmlns="http://www.w3.org/2000/svg">
  <rect x="279.161" y="116.191" width="191.373" height="191.373" style="stroke: rgb(0, 0, 0);"/>
  <path d="M 446.503 259.469 C 448.042 279.228 448.042 288.492 448.042 298.604 L 402.316 298.604 C 402.316 296.402 402.358 294.386 402.394 292.348 C 402.522 285.991 402.651 279.372 401.617 265.996 C 400.264 246.421 391.826 242.067 376.321 242.067 L 304.433 242.067 L 304.433 206.437 L 378.514 206.437 C 398.097 206.437 407.888 200.487 407.888 184.709 C 407.888 170.842 398.097 162.441 378.514 162.441 L 304.426 162.441 L 304.426 127.581 L 386.667 127.581 C 430.998 127.581 453.031 148.516 453.031 181.966 C 453.031 206.986 437.525 223.297 416.59 226.02 C 434.261 229.561 444.594 239.622 446.503 259.469 Z M 304.426 298.604 L 304.426 272.045 L 352.769 272.045 C 360.842 272.045 362.596 278.032 362.596 281.609 L 362.596 298.604 L 304.426 298.604 Z" style="fill: rgb(255, 255, 255);"/>
</svg>