<?xml version="1.0" encoding="utf-8"?>
<svg viewBox="28.346 173.37 213.333 213.333" xmlns="http://www.w3.org/2000/svg">
  <g fill="#ffffff" fill-rule="nonzero" stroke="none" stroke-width="1" stroke-linecap="butt" stroke-linejoin="miter" stroke-miterlimit="10" stroke-dasharray="" stroke-dashoffset="0" font-family="none" font-weight="none" font-size="none" text-anchor="none" style="mix-blend-mode: normal" transform="matrix(1, 0, 0, 1, 7.0122, 152.036471)">
    <g transform="scale(5.33333,5.33333)">
      <path d="M24,44c-11,0 -20,-9 -20,-20c0,-11 9,-20 20,-20c11,0 20,9 20,20c0,11 -9,20 -20,20zM24,6c-9.9,0 -18,8.1 -18,18c0,9.9 8.1,18 18,18c9.9,0 18,-8.1 18,-18c0,-9.9 -8.1,-18 -18,-18z"/>
      <path d="M9,28c0,-7.7 7.2,-15.4 14,-17c0,0 -3,2.4 -3,4c0,3.3 2,2 2,2c0,0 0,12.2 0,13c0,0.8 0.9,1 2,1c1.1,0 3,-1.3 3,-1.3c0,0 0,-9.5 0,-10.7c0,-1.2 -1.4,-2.5 -2,-3c1.7,0 3,1 3,1c0,0 1.3,-2.5 7,-4c-0.9,1.1 -3,4.1 -3,5.1c0,1 0,10.7 0,11.3c0,0.6 0.7,0.6 1.1,0.6c0.4,0 2.7,-0.6 4.9,-3c0,0.7 -3.6,6.2 -8,9l-3,-3l-3,4c0,0 -6.1,-0.7 -9,-5c0.8,0.1 2,0.2 2,-1c0,-1.2 0,-9.2 0,-10c0,-0.8 -0.4,-1.2 -1,-1.2c-0.7,0 -3.3,1.7 -7,8.2z"/>
    </g>
  </g>
</svg>