<svg xmlns="http://www.w3.org/2000/svg" xmlns:xlink="http://www.w3.org/1999/xlink" viewBox="0,0,256,256" width="48px" height="48px" fill-rule="nonzero"><g fill="none" fill-rule="nonzero" stroke="none" stroke-width="1" stroke-linecap="butt" stroke-linejoin="miter" stroke-miterlimit="10" stroke-dasharray="" stroke-dashoffset="0" font-family="none" font-weight="none" font-size="none" text-anchor="none" style="mix-blend-mode: normal"><g transform="scale(2,2)"><path d="M114,124h-100c-5.5,0 -10,-4.5 -10,-10v-100c0,-5.5 4.5,-10 10,-10h100c5.5,0 10,4.5 10,10v100c0,5.5 -4.5,10 -10,10z" fill="#020613"></path><path d="M47.9,86.8c1.2,1.1 1.3,3 0.2,4.2c-0.6,0.7 -1.4,1 -2.2,1c-0.7,0 -1.4,-0.2 -2,-0.8l-12.1,-11c-0.6,-0.6 -1,-1.4 -1,-2.2c0,-0.8 0.4,-1.7 1,-2.2l12.1,-11.1c1.2,-1.1 3.1,-1 4.2,0.2c1.1,1.2 1,3.1 -0.2,4.2l-9.6,8.9zM75.1,56.9l-16.5,44.4c-0.5,1.3 -1.8,2.1 -3.1,1.9c-0.3,0 -0.5,-0.1 -0.8,-0.2c-1.6,-0.6 -2.3,-2.3 -1.8,-3.9l16.5,-44.4c0.6,-1.6 2.3,-2.3 3.9,-1.8c1.6,0.7 2.4,2.4 1.8,4zM96.2,80.2l-12.1,11.1c-0.6,0.5 -1.3,0.8 -2,0.8c-0.8,0 -1.6,-0.3 -2.2,-1c-1.1,-1.2 -1,-3.1 0.2,-4.2l9.6,-8.8l-9.6,-8.8c-1.2,-1.1 -1.3,-3 -0.2,-4.2c1.1,-1.2 3,-1.3 4.2,-0.2l12.1,11.1c0.6,0.6 1,1.4 1,2.2c0,0.8 -0.4,1.5 -1,2z" fill="#007aff"></path><path d="M114,127h-100c-7.2,0 -13,-5.8 -13,-13v-73c0,-1.7 1.3,-3 3,-3c1.7,0 3,1.3 3,3v73c0,3.9 3.1,7 7,7h100c3.9,0 7,-3.1 7,-7v-100c0,-3.9 -3.1,-7 -7,-7h-100c-3.9,0 -7,3.1 -7,7v11h104c1.7,0 3,1.3 3,3c0,1.7 -1.3,3 -3,3h-107c-1.7,0 -3,-1.3 -3,-3v-14c0,-7.2 5.8,-13 13,-13h100c7.2,0 13,5.8 13,13v100c0,7.2 -5.8,13 -13,13z" fill="#373f49"></path><circle cx="16" cy="16" r="3" fill="#373f49"></circle><circle cx="26" cy="16" r="3" fill="#373f49"></circle><circle cx="36" cy="16" r="3" fill="#373f49"></circle></g></g></svg>