<?xml version="1.0" encoding="utf-8"?>
<svg viewBox="231.419 60.396 132.8 100.979" xmlns="http://www.w3.org/2000/svg">
  <g fill="none" fill-rule="nonzero" stroke="none" stroke-width="1" stroke-linecap="butt" stroke-linejoin="miter" stroke-miterlimit="10" stroke-dasharray="" stroke-dashoffset="0" font-family="none" font-weight="none" font-size="none" text-anchor="none" style="mix-blend-mode: normal" transform="matrix(1, 0, 0, 1, 169.818789, -45.086137)">
    <g transform="scale(2,2)">
      <path d="M47.9,86.8c1.2,1.1 1.3,3 0.2,4.2c-0.6,0.7 -1.4,1 -2.2,1c-0.7,0 -1.4,-0.2 -2,-0.8l-12.1,-11c-0.6,-0.6 -1,-1.4 -1,-2.2c0,-0.8 0.4,-1.7 1,-2.2l12.1,-11.1c1.2,-1.1 3.1,-1 4.2,0.2c1.1,1.2 1,3.1 -0.2,4.2l-9.6,8.9zM75.1,56.9l-16.5,44.4c-0.5,1.3 -1.8,2.1 -3.1,1.9c-0.3,0 -0.5,-0.1 -0.8,-0.2c-1.6,-0.6 -2.3,-2.3 -1.8,-3.9l16.5,-44.4c0.6,-1.6 2.3,-2.3 3.9,-1.8c1.6,0.7 2.4,2.4 1.8,4zM96.2,80.2l-12.1,11.1c-0.6,0.5 -1.3,0.8 -2,0.8c-0.8,0 -1.6,-0.3 -2.2,-1c-1.1,-1.2 -1,-3.1 0.2,-4.2l9.6,-8.8l-9.6,-8.8c-1.2,-1.1 -1.3,-3 -0.2,-4.2c1.1,-1.2 3,-1.3 4.2,-0.2l12.1,11.1c0.6,0.6 1,1.4 1,2.2c0,0.8 -0.4,1.5 -1,2z" style="fill: rgb(255, 255, 255);"/>
    </g>
  </g>
</svg>