<?xml version="1.0" encoding="utf-8"?>
<svg viewBox="0 0 500 500" xmlns="http://www.w3.org/2000/svg">
  <g fill="none" fill-rule="nonzero" stroke="none" stroke-width="1" stroke-linecap="butt" stroke-linejoin="miter" stroke-miterlimit="10" stroke-dasharray="" stroke-dashoffset="0" font-family="none" font-weight="none" font-size="none" text-anchor="none" style="mix-blend-mode: normal;" transform="matrix(2.584251, 0, 0, 2.584251, -80.054085, -81.440765)">
    <g transform="scale(2,2)">
      <path d="M19,39v70h70l20,-20l-70,-70z" fill="#020613"/>
      <path d="M109,19h-70v67c0,1.7 1.3,3 3,3h67z" fill="#020613"/>
      <path d="M101.1,26.9c-1.2,-1.2 -3.1,-1.2 -4.2,0l-9.1,9.1h-53.8c-1.7,0 -3,1.3 -3,3c0,1.7 1.3,3 3,3h52v52c0,1.7 1.3,3 3,3c1.7,0 3,-1.3 3,-3v-53.8l9.1,-9.1c1.2,-1.2 1.2,-3 0,-4.2z" fill="#373f49"/>
      <path d="M109,16h-70c-0.2,0 -0.4,0 -0.6,0.1c-0.1,0 -0.2,0.1 -0.3,0.1c-0.1,0 -0.2,0.1 -0.3,0.1c-0.1,0 -0.2,0.1 -0.3,0.2c-0.1,0 -0.2,0.1 -0.2,0.1c-0.2,0.1 -0.3,0.2 -0.5,0.4l-20,20c-0.1,0.1 -0.3,0.3 -0.4,0.5c0,0.1 -0.1,0.1 -0.1,0.2c-0.1,0.1 -0.1,0.2 -0.2,0.3c0,0.1 -0.1,0.2 -0.1,0.3c0,0.1 -0.1,0.2 -0.1,0.3c0,0.2 -0.1,0.4 -0.1,0.6v70c0,1.7 1.3,3 3,3h70c0.2,0 0.4,0 0.6,-0.1c0.1,0 0.2,-0.1 0.3,-0.1c0.1,0 0.2,-0.1 0.3,-0.1c0.1,0 0.2,-0.1 0.3,-0.2c0.1,0 0.2,-0.1 0.2,-0.1c0.2,-0.1 0.3,-0.2 0.5,-0.4l20,-20c0.6,-0.6 0.9,-1.3 0.9,-2.1v-70.1c0.1,-1.7 -1.2,-3 -2.9,-3zM106,87.8l-18.2,18.2h-65.8v-65.8l18.2,-18.2h65.8z" fill="#373f49"/>
    </g>
  </g>
  <g fill="none" fill-rule="nonzero" stroke="none" stroke-width="1" stroke-linecap="butt" stroke-linejoin="miter" stroke-miterlimit="10" stroke-dasharray="" stroke-dashoffset="0" font-family="none" font-weight="none" font-size="none" text-anchor="none" style="mix-blend-mode: normal;" transform="matrix(1.499569, 0, 0, 1.499569, -60.94685, 169.822617)">
    <g transform="scale(2,2)">
      <path d="M 125.852 18.027 L 115.18 7.42 C 113.887 6.134 111.839 6.134 110.653 7.42 L 107.743 10.313 C 106.449 11.598 106.449 13.527 107.743 14.813 L 113.024 20.277 C 114.21 21.562 106.126 22.42 106.126 22.42 L 103.107 19.42 C 101.814 18.134 99.766 18.134 98.472 19.42 L 65.811 51.883 C 65.164 52.525 64.841 53.275 64.841 54.133 C 64.841 54.99 65.164 55.847 65.811 56.382 L 69.799 60.347 L 71.847 62.382 C 72.925 63.454 73.249 65.275 72.386 66.561 C 71.201 68.275 68.829 68.489 67.428 67.096 L 65.811 65.382 L 61.391 60.989 C 60.637 60.239 59.559 59.918 58.481 60.132 C 57.403 60.347 56.541 61.097 56.11 62.061 L 48.564 80.167 C 48.025 81.346 48.348 82.846 49.211 83.81 C 50.073 84.774 51.474 84.989 52.66 84.56 L 70.985 76.846 C 71.308 76.739 71.74 76.417 72.063 76.203 L 81.225 67.096 L 126.067 22.634 C 126.714 21.991 127.038 21.241 127.038 20.384 C 126.822 19.42 126.499 18.67 125.852 18.027 Z" fill="#007aff" style=""/>
    </g>
  </g>
</svg>