<?xml version="1.0" encoding="utf-8"?>
<svg viewBox="0,0,256,256" width="48px" height="48px" fill-rule="nonzero" xmlns="http://www.w3.org/2000/svg">
  <rect x="50.112" y="232.5" width="157.78" height="14.317" style="paint-order: stroke; stroke-width: 0px; fill: rgb(2, 6, 19);" rx="3.436" ry="3.436"/>
  <g fill="none" fill-rule="nonzero" stroke="none" stroke-width="1" stroke-linecap="butt" stroke-linejoin="miter" stroke-miterlimit="10" stroke-dasharray="" stroke-dashoffset="0" font-family="none" font-weight="none" font-size="none" text-anchor="none" style="mix-blend-mode: normal">
    <g transform="scale(2,2)">
      <path d="M 118.716 116.679 L 8.85 116.679 L 8.85 14.634 C 8.85 10.548 11.648 7.202 15.069 7.202 L 112.497 7.202 C 115.918 7.202 118.716 10.548 118.716 14.634 L 118.716 116.679 Z" fill="#020613" style=""/>
      <path d="M 125.367 112.196 L 124.292 112.196 L 124.292 12.878 C 124.292 6.748 119.985 2.789 114.601 2.789 L 13.402 2.789 C 8.019 2.789 3.714 6.748 3.714 12.878 L 3.714 112.196 L 2.636 112.196 C 0.807 112.196 0.421 113.791 0.421 115.874 C 0.421 117.959 0.807 119.553 2.636 119.553 L 125.367 119.553 C 127.199 119.553 127.585 117.959 127.585 115.874 C 127.585 113.791 127.199 112.196 125.367 112.196 Z M 10.173 12.878 C 10.173 10.792 11.571 9.198 13.402 9.198 L 114.601 9.198 C 116.432 9.198 117.833 10.792 117.833 12.878 L 117.833 112.196 L 10.173 112.196 L 10.173 12.878 Z" fill="#373f49" style=""/>
    </g>
  </g>
  <g fill="#007aff" fill-rule="nonzero" stroke="none" stroke-width="1" stroke-linecap="butt" stroke-linejoin="miter" stroke-miterlimit="10" stroke-dasharray="" stroke-dashoffset="0" font-family="none" font-weight="none" font-size="none" text-anchor="none" style="mix-blend-mode: normal;" transform="matrix(0.743062, 0, 0, 0.743062, 33.51086, 30.188465)">
    <g transform="scale(5.12,5.12)">
      <path d="M24.98438,2.98438c-0.55078,0.01172 -0.99219,0.46484 -0.98437,1.01563v2c-0.00391,0.35938 0.18359,0.69531 0.49609,0.87891c0.3125,0.17969 0.69531,0.17969 1.00781,0c0.3125,-0.18359 0.5,-0.51953 0.49609,-0.87891v-2c0.00391,-0.26953 -0.10156,-0.53125 -0.29297,-0.72266c-0.19141,-0.19141 -0.45312,-0.29687 -0.72266,-0.29297zM8.99219,7.99219c-0.41016,0 -0.77344,0.24609 -0.92969,0.62109c-0.15234,0.37891 -0.0625,0.80859 0.23047,1.09375l2,2c0.25,0.26172 0.625,0.36719 0.97266,0.27344c0.35156,-0.08984 0.625,-0.36328 0.71484,-0.71484c0.09375,-0.34766 -0.01172,-0.72266 -0.27344,-0.97266l-2,-2c-0.1875,-0.19531 -0.44531,-0.30078 -0.71484,-0.30078zM40.98047,7.99219c-0.26172,0.00391 -0.50781,0.11328 -0.6875,0.30078l-2,2c-0.26172,0.25 -0.36719,0.625 -0.27344,0.97266c0.08984,0.35156 0.36328,0.625 0.71484,0.71484c0.34766,0.09375 0.72266,-0.01172 0.97266,-0.27344l2,-2c0.29688,-0.28906 0.38281,-0.72656 0.22266,-1.10547c-0.16016,-0.38281 -0.53516,-0.625 -0.94922,-0.60938zM22,10c-1.48047,0 -2.61719,0.92969 -3.30078,2.13672c-0.23828,-0.04297 -0.44922,-0.13672 -0.69922,-0.13672c-2.19922,0 -4,1.80078 -4,4c0,0.07031 0.03125,0.12891 0.03516,0.19922c-1.72266,0.44141 -3.03516,1.94531 -3.03516,3.80078c0,0.75 0.26563,1.41406 0.62891,2.01563c-0.92187,0.73047 -1.62891,1.71875 -1.62891,2.98438c0,1.26563 0.70703,2.25391 1.62891,2.98438c-0.36328,0.60156 -0.62891,1.26563 -0.62891,2.01563c0,1.85547 1.3125,3.35938 3.03516,3.80078c-0.00391,0.07031 -0.03516,0.12891 -0.03516,0.19922c0,2.19922 1.80078,4 4,4c0.25,0 0.46094,-0.09375 0.69922,-0.13672c0.68359,1.20703 1.82031,2.13672 3.30078,2.13672c1.19531,0 2.26172,-0.54297 3,-1.37891c0.73047,0.83594 1.78906,1.37891 2.98047,1.37891c1.48047,0 2.61719,-0.92969 3.30078,-2.13672c0.23828,0.04297 0.44922,0.13672 0.69922,0.13672c2.19922,0 4,-1.80078 4,-4c0,-0.07031 -0.03125,-0.125 -0.03906,-0.19922c1.72656,-0.44141 3.03906,-1.94531 3.03906,-3.80078c0,-0.75 -0.26562,-1.41406 -0.62891,-2.01562c0.92188,-0.73047 1.62891,-1.71875 1.62891,-2.98437c0,-1.26562 -0.70703,-2.25391 -1.62891,-2.98437c0.36328,-0.60156 0.62891,-1.26562 0.62891,-2.01562c0,-1.85547 -1.3125,-3.35937 -3.03516,-3.80078c0.00391,-0.07031 0.03516,-0.12891 0.03516,-0.19922c0,-2.19922 -1.80078,-4 -4,-4c-0.25,0 -0.46094,0.09375 -0.69922,0.13672c-0.68359,-1.20703 -1.82031,-2.13672 -3.30078,-2.13672c-1.19141,0 -2.25,0.54297 -2.98047,1.37891c-0.73828,-0.83594 -1.80469,-1.37891 -3,-1.37891zM22,12c1.06641,0 1.92969,0.82422 2,1.86328v7.13672c-2.19922,0 -4,1.80078 -4,4c-0.00391,0.35938 0.18359,0.69531 0.49609,0.87891c0.3125,0.17969 0.69531,0.17969 1.00781,0c0.3125,-0.18359 0.5,-0.51953 0.49609,-0.87891c0,-1.11719 0.88281,-2 2,-2v13.13672c-0.07031,1.03906 -0.93359,1.86328 -2,1.86328c-0.92969,0 -1.6875,-0.625 -1.91797,-1.48047c-0.07422,-0.27734 -0.26172,-0.50781 -0.51953,-0.63281c-0.25391,-0.12891 -0.55469,-0.14062 -0.81641,-0.03516c-0.24219,0.09766 -0.48828,0.14844 -0.74609,0.14844c-1.11719,0 -2,-0.88281 -2,-2c0,-0.03516 0.00781,-0.07031 0.01172,-0.10547c0.30859,-0.05859 0.66016,-0.14844 1.03516,-0.33594c0.96484,-0.48828 1.95313,-1.69531 1.95313,-3.55859c0.00391,-0.26953 -0.10156,-0.53125 -0.29297,-0.72266c-0.19141,-0.19141 -0.45312,-0.29687 -0.72266,-0.29297c-0.55078,0.01172 -0.99219,0.46484 -0.98437,1.01563c0,1.26563 -0.41797,1.55078 -0.85547,1.76953c-0.4375,0.22266 -0.89844,0.21484 -0.89844,0.21484c-0.00391,-0.00391 -0.00781,-0.00391 -0.01172,0c-0.03125,-0.00391 -0.05859,-0.00391 -0.08984,0c-0.00781,-0.00391 -0.01172,-0.00391 -0.01953,0c-0.05859,0 -0.01172,0 -0.04297,0.00391c-0.01953,0.00391 -0.04297,0.00391 -0.0625,0.01172c0.00781,0 -0.03125,0 -0.01953,0c-1.11719,0 -2,-0.88281 -2,-2c0,-0.58203 0.24609,-1.08984 0.64453,-1.46094c0.25781,-0.23828 0.37109,-0.58984 0.30469,-0.92969c-0.07031,-0.33984 -0.30859,-0.62109 -0.63672,-0.74219c-0.76562,-0.28125 -1.3125,-1 -1.3125,-1.86719c0,-0.86719 0.54688,-1.58594 1.3125,-1.86719c0.32813,-0.12109 0.56641,-0.40234 0.63672,-0.74219c0.06641,-0.33984 -0.04687,-0.69141 -0.30469,-0.92969c-0.39844,-0.37109 -0.64453,-0.87891 -0.64453,-1.46094c0,-0.97266 0.67188,-1.76562 1.58203,-1.95312c0.11719,0.19531 0.25391,0.40234 0.4375,0.61719c0.56641,0.65234 1.58594,1.33594 2.98047,1.33594c0.35938,0.00391 0.69531,-0.18359 0.87891,-0.49609c0.17969,-0.3125 0.17969,-0.69531 0,-1.00781c-0.18359,-0.3125 -0.51953,-0.5 -0.87891,-0.49609c-0.79297,0 -1.17578,-0.30859 -1.46875,-0.64453c-0.29297,-0.33594 -0.38672,-0.63672 -0.38672,-0.63672c-0.00391,-0.01562 -0.01172,-0.02734 -0.01562,-0.04297c0,-0.00391 -0.00391,-0.00781 -0.00391,-0.01562c-0.08203,-0.22656 -0.125,-0.44141 -0.125,-0.66016c0,-1.11719 0.88281,-2 2,-2c0.25781,0 0.50391,0.05078 0.74609,0.14844c0.26172,0.10547 0.5625,0.09375 0.81641,-0.03516c0.25781,-0.125 0.44531,-0.35547 0.51953,-0.63281c0.23047,-0.85547 0.98828,-1.48047 1.91797,-1.48047zM27.98047,12c0.92969,0 1.6875,0.625 1.91797,1.48047c0.07422,0.27734 0.26172,0.50781 0.51953,0.63281c0.25391,0.12891 0.55469,0.14063 0.81641,0.03516c0.24219,-0.09766 0.48828,-0.14844 0.74609,-0.14844c1.11719,0 2,0.88281 2,2c0,0.21484 -0.04297,0.42578 -0.12109,0.65234c-0.00391,0.00781 -0.00781,0.01563 -0.01172,0.02344c-0.00781,0.03516 -0.01953,0.06641 -0.02734,0.09766c-0.00391,0.01172 -0.00781,0.02734 -0.00781,0.03906c0,0 -0.05469,0.26172 -0.30469,0.56641c-0.25,0.30859 -0.59766,0.62109 -1.50781,0.62109c-0.35937,-0.00391 -0.69531,0.18359 -0.87891,0.49609c-0.17969,0.3125 -0.17969,0.69531 0,1.00781c0.18359,0.3125 0.51953,0.5 0.87891,0.49609c1.46484,0 2.51172,-0.67969 3.0625,-1.35937c0.16016,-0.19922 0.28125,-0.39844 0.37891,-0.58203c0.88672,0.20313 1.53906,0.98438 1.53906,1.94141c0,0.58203 -0.24609,1.08984 -0.64844,1.46094c-0.25391,0.23828 -0.36719,0.58984 -0.30078,0.92969c0.07031,0.33984 0.30859,0.62109 0.63672,0.74219c0.76563,0.28125 1.3125,1 1.3125,1.86719c0,0.6875 -0.34766,1.26953 -0.87109,1.625c-0.30859,-0.19531 -0.71484,-0.38672 -1.24219,-0.50391c-0.25,-0.05469 -0.52344,-0.08203 -0.80859,-0.07422c-0.86719,0.02734 -1.86328,0.375 -2.75391,1.23438c-0.26172,0.24609 -0.37109,0.61719 -0.28516,0.96484c0.08594,0.35156 0.35547,0.62891 0.69922,0.72656c0.34766,0.09766 0.72266,0 0.97656,-0.25391c0.78516,-0.75781 1.28516,-0.74609 1.74219,-0.64453c0.45703,0.10156 0.88281,0.45313 0.87891,0.45313c0.00781,0.00391 0.01172,0.00781 0.01563,0.01172c0.00391,0 0.00391,0 0.00391,0.00391c0.39844,0.37109 0.64453,0.875 0.64453,1.45703c0,1.11719 -0.88281,2 -2,2c0.08984,0 0.05078,-0.00781 -0.12891,-0.01562c-0.33594,-0.02344 -0.66016,0.12891 -0.86328,0.39844c-0.20312,0.26953 -0.25391,0.62109 -0.14062,0.94141c0.08594,0.23438 0.13281,0.45313 0.13281,0.67578c0,1.11719 -0.88281,2 -2,2c-0.25781,0 -0.50391,-0.05078 -0.74609,-0.14844c-0.26172,-0.10547 -0.5625,-0.09375 -0.81641,0.03516c-0.25781,0.125 -0.44531,0.35547 -0.51953,0.63281c-0.23047,0.85547 -0.98828,1.48047 -1.91797,1.48047c-1.06641,0 -1.91016,-0.81641 -1.98047,-1.86328v-6.13672c0,-1.11719 0.88281,-2 2,-2c0.35938,0.00391 0.69531,-0.18359 0.87891,-0.49609c0.17969,-0.3125 0.17969,-0.69531 0,-1.00781c-0.18359,-0.3125 -0.51953,-0.5 -0.87891,-0.49609c-0.73047,0 -1.41016,0.21484 -2,0.5625v-12.69922c0.07031,-1.05078 0.91406,-1.86328 1.98047,-1.86328zM4,24c-0.35937,-0.00391 -0.69531,0.18359 -0.87891,0.49609c-0.17969,0.3125 -0.17969,0.69531 0,1.00781c0.18359,0.3125 0.51953,0.5 0.87891,0.49609h3c0.35938,0.00391 0.69531,-0.18359 0.87891,-0.49609c0.17969,-0.3125 0.17969,-0.69531 0,-1.00781c-0.18359,-0.3125 -0.51953,-0.5 -0.87891,-0.49609zM43,24c-0.35937,-0.00391 -0.69531,0.18359 -0.87891,0.49609c-0.17969,0.3125 -0.17969,0.69531 0,1.00781c0.18359,0.3125 0.51953,0.5 0.87891,0.49609h3c0.35938,0.00391 0.69531,-0.18359 0.87891,-0.49609c0.17969,-0.3125 0.17969,-0.69531 0,-1.00781c-0.18359,-0.3125 -0.51953,-0.5 -0.87891,-0.49609zM10.98047,37.98828c-0.26172,0.00781 -0.50781,0.11719 -0.6875,0.30469l-2,2c-0.26172,0.25 -0.36719,0.625 -0.27344,0.97266c0.08984,0.35156 0.36328,0.625 0.71484,0.71484c0.34766,0.09375 0.72266,-0.01172 0.97266,-0.27344l2,-2c0.29688,-0.28906 0.38281,-0.72656 0.22266,-1.10547c-0.16016,-0.38281 -0.53516,-0.625 -0.94922,-0.61328zM38.98828,37.98828c-0.40625,0.00391 -0.76953,0.25 -0.92578,0.625c-0.15234,0.37891 -0.0625,0.80859 0.23047,1.09375l2,2c0.25,0.26172 0.625,0.36719 0.97266,0.27344c0.35156,-0.08984 0.625,-0.36328 0.71484,-0.71484c0.09375,-0.34766 -0.01172,-0.72266 -0.27344,-0.97266l-2,-2c-0.1875,-0.19531 -0.44531,-0.30078 -0.71875,-0.30469zM24.98438,42.98438c-0.55078,0.01172 -0.99219,0.46484 -0.98437,1.01563v2c-0.00391,0.35938 0.18359,0.69531 0.49609,0.87891c0.3125,0.17969 0.69531,0.17969 1.00781,0c0.3125,-0.18359 0.5,-0.51953 0.49609,-0.87891v-2c0.00391,-0.26953 -0.10156,-0.53125 -0.29297,-0.72266c-0.19141,-0.19141 -0.45312,-0.29687 -0.72266,-0.29297z"/>
    </g>
  </g>
  <rect x="50.26" y="241.65" width="157.781" height="14.317" style="paint-order: stroke; stroke-width: 0px; fill: rgb(55, 63, 73);" rx="3.436" ry="3.436"/>
</svg>