<svg xmlns="http://www.w3.org/2000/svg"  viewBox="0 0 24 24" width="48px" height="48px"><path fill="#018FB4" d="M23.5004177,24c-0.1567383,0-0.3110352-0.0732422-0.4086914-0.2109375 c-0.3144531-0.4443359-0.9150391-0.8779297-1.5512695-1.3369141c-1.0395508-0.75-2.2182617-1.6005859-2.5253906-2.8310547 c-0.0341797-0.1352539-0.0097656-0.2783203,0.0668945-0.3950195c0.0761719-0.1166992,0.1982422-0.1962891,0.3359375-0.2192383 c0.9384766-0.15625,2.2983398-0.5195313,3.1499023-0.7583008c-0.8720703-0.8486328-2.7329102-2.4291992-5.2285156-3.2749023 c-0.1196289-0.0405273-0.2197266-0.125-0.2797852-0.2368164c-0.1992188-0.3701172-0.4199219-0.8764648-0.675293-1.4624023 c-1.5161133-3.4785156-4.3388672-9.953125-11.9379883-10.7773438C4.363699,2.4882813,4.2850857,2.4589844,4.2172146,2.4125977 C3.2260036,1.7329102,1.9052027,1,1.4999293,1c-0.5,0-0.5,0-0.5,0.5 c0.0166016,0.2353516,0.5722656,0.9995117,0.9042969,1.4560547C2.5834255,3.8901367,2.9999294,4.4882813,2.9999294,5 c0,0.6640625,1.0561523,3.4575195,1.8266602,4.1210938c0.1669922,0.144043,0.2197266,0.3803711,0.1303711,0.5820313 C4.879324,9.8779297,4.801199,10.0419922,4.7255154,10.2016602C4.3202419,11.0561523,3.9999294,11.730957,3.9999294,13.5 c0,1.8530273,0.7788086,3,1.5,3c0.2382813-0.1640625,0.5-1.6269531,0.5-3c0-0.2456055,0.1787109-0.4550781,0.4213867-0.4936523 c0.2382813-0.0395508,0.4775391,0.1049805,0.5537109,0.3383789c0.0131836,0.0400391,1.3271484,3.9916992,3.8134766,5.746582 c0.2255859,0.159668,0.2792969,0.4711914,0.1201172,0.6972656c-0.1591797,0.2246094-0.4711981,0.2783203-0.6972656,0.1201172 c-1.5678711-1.1069336-2.6870117-2.9179688-3.3720703-4.3081055C6.6547146,16.625,6.2709255,17.5,5.4999294,17.5 c-1.2421875,0-2.5-1.3740234-2.5-4c0-1.9941406,0.3994141-2.8359375,0.8222656-3.7270508 c0.0268555-0.0566406,0.0541992-0.1137695,0.081543-0.171875C2.9491482,8.4677734,1.9999293,5.8183594,1.9999293,5 C1.9833277,4.7646484,1.4276637,4.0004883,1.0956324,3.5439453C0.4164332,2.6098633-0.0000707,2.0117188-0.0000707,1.5 c0-1.0512695,0.4487305-1.5,1.5-1.5c0.8471681,0,2.5351563,1.0820313,3.1791992,1.5170898 c8.0825195,0.9453125,11.1459961,7.9716797,12.621582,11.3574219c0.2094727,0.4799805,0.3896484,0.8950195,0.5512695,1.21875 c3.6640625,1.3066406,5.934082,3.9702148,6.0307617,4.0849609c0.1083984,0.1289063,0.1445313,0.3037109,0.0961914,0.4648438 c-0.0478516,0.1611328-0.1743164,0.2875977-0.3354492,0.3359375c-0.090332,0.0268555-1.965332,0.5878906-3.4472656,0.8974609 c0.390625,0.6542969,1.1704102,1.2172852,1.9296875,1.7646484c0.7050781,0.5092773,1.3710938,0.9902344,1.7822266,1.5698242 c0.159668,0.2255859,0.105957,0.5375977-0.1191406,0.6972656C23.7011013,23.9702148,23.6005154,24,23.5004177,24z"/><path fill="#018FB4" d="M5.9999294,5.5c-0.2763672,0-0.5-0.2236328-0.5-0.5c0-0.2758789-0.2241211-0.5-0.5-0.5 c-0.2763672,0-0.5-0.2236328-0.5-0.5s0.2236328-0.5,0.5-0.5c0.8271484,0,1.5,0.6728516,1.5,1.5 C6.4999294,5.2763672,6.2762966,5.5,5.9999294,5.5z"/><linearGradient id="0eAOmyJa26p7PLLqnAMfBa" x1="-2.253" x2="26.13" y1="5.807" y2="19.043" gradientUnits="userSpaceOnUse"><stop offset="0" stop-color="#fff" stop-opacity=".2"/><stop offset="1" stop-color="#fff" stop-opacity="0"/></linearGradient><path fill="url(#0eAOmyJa26p7PLLqnAMfBa)" d="M23.9081326,23.2109375c-0.4111328-0.5795898-1.0771484-1.0605469-1.7822266-1.5698242 c-0.7592773-0.5473633-1.5390625-1.1103516-1.9296875-1.7646484c1.4819336-0.3095703,3.3569336-0.8706055,3.4472656-0.8974609 c0.1611328-0.0483398,0.2875977-0.1748047,0.3354492-0.3359375c0.0483398-0.1611328,0.012207-0.3359375-0.0961914-0.4648438 c-0.0966797-0.1147461-2.3666992-2.7783203-6.0307617-4.0849609c-0.1616211-0.3237305-0.3417969-0.7387695-0.5512695-1.21875 C15.8251247,9.4887695,12.7616482,2.4624023,4.6791286,1.5170898C4.0350857,1.0820313,2.3470974,0,1.4999293,0 c-1.0512695,0-1.5,0.4487305-1.5,1.5c0,0.5117188,0.4165039,1.1098633,1.0957031,2.0439453 C1.4276637,4.0004883,1.9833277,4.7646484,1.9999293,5c0,0.8183594,0.9492189,3.4677734,1.9038087,4.6010742 c-0.0273438,0.0581055-0.0546875,0.1152344-0.081543,0.171875C3.3993435,10.6640625,2.9999294,11.5058594,2.9999294,13.5 c0,2.6259766,1.2578125,4,2.5,4c0.7709961,0,1.1547852-0.875,1.3393555-1.8994141 c0.6850586,1.3901367,1.8041992,3.2011719,3.3720703,4.3081055c0.2260675,0.1582031,0.5380859,0.1044922,0.6972656-0.1201172 c0.1591797-0.2260742,0.1054688-0.5375977-0.1201172-0.6972656c-2.4863281-1.7548828-3.800293-5.706543-3.8134766-5.746582 c-0.0761719-0.2333984-0.3154297-0.3779297-0.5537109-0.3383789C6.1786404,13.0449219,5.9999294,13.2543945,5.9999294,13.5 c0,1.3730469-0.2617188,2.8359375-0.5,3c-0.7211914,0-1.5-1.1469727-1.5-3c0-1.769043,0.3203125-2.4438477,0.7255859-3.2983398 C4.801199,10.0419922,4.879324,9.8779297,4.9569607,9.703125c0.0893555-0.2016602,0.0366211-0.4379883-0.1303711-0.5820313 C4.0560818,8.4575195,2.9999294,5.6640625,2.9999294,5c0-0.5117188-0.4165039-1.1098633-1.0957032-2.0439453 C1.5721949,2.4995117,1.0165309,1.7353516,0.9999293,1.5c0-0.5,0-0.5,0.5-0.5c0.4052734,0,1.7260743,0.7329102,2.7172852,1.4125977 C4.2850857,2.4589844,4.363699,2.4882813,4.4462185,2.4970703c7.5991211,0.8242188,10.421875,7.2988281,11.9379883,10.7773438 c0.2553711,0.5859375,0.4760742,1.0922852,0.675293,1.4624023c0.0600586,0.1118164,0.1601563,0.1962891,0.2797852,0.2368164 c2.4956055,0.8457031,4.3564453,2.4262695,5.2285156,3.2749023c-0.8515625,0.2387695-2.2114258,0.6020508-3.1499023,0.7583008 c-0.1376953,0.0229492-0.2597656,0.1025391-0.3359375,0.2192383c-0.0766602,0.1166992-0.1010742,0.2597656-0.0668945,0.3950195 c0.3071289,1.2304688,1.4858398,2.0810547,2.5253906,2.8310547c0.6362305,0.4589844,1.2368164,0.8925781,1.5512695,1.3369141 C23.1893826,23.9267578,23.3436794,24,23.5004177,24c0.1000977,0,0.2006836-0.0297852,0.2885742-0.0917969 C24.0140896,23.7485352,24.0678005,23.4365234,23.9081326,23.2109375z M4.4999294,4c0,0.2763672,0.2236328,0.5,0.5,0.5 c0.2758789,0,0.5,0.2241211,0.5,0.5c0,0.2763672,0.2236328,0.5,0.5,0.5s0.5-0.2236328,0.5-0.5c0-0.8271484-0.6728516-1.5-1.5-1.5 C4.7235622,3.5,4.4999294,3.7236328,4.4999294,4z"/></svg>