<?xml version="1.0" encoding="utf-8"?>
<svg viewBox="279.161 116.191 191.373 191.373" xmlns="http://www.w3.org/2000/svg">
  <rect x="279.161" y="116.191" width="191.373" height="191.373" style="fill: rgb(73, 68, 254);"/>
  <path d="M 342.866 136.414 L 342.866 189.858 L 394.581 189.858 C 396.444 189.858 397.921 191.428 397.921 193.071 L 397.921 244.965 L 451.297 244.965 L 451.297 139.754 C 451.297 137.909 449.803 136.414 447.959 136.414 L 342.866 136.414 Z M 339.541 139.741 L 292.328 187.011 C 291.422 187.923 291.842 189.473 293.085 189.803 C 293.223 189.84 293.367 189.858 293.512 189.858 L 339.541 189.858 L 339.541 139.741 Z M 342.866 193.184 L 342.866 241.626 C 342.866 243.475 344.356 244.965 346.205 244.965 L 394.594 244.965 L 394.594 196.396 C 394.594 194.548 393.104 193.191 391.255 193.184 L 342.866 193.184 Z M 397.921 248.291 L 397.921 294.373 C 397.921 295.861 399.722 296.607 400.78 295.557 L 447.972 248.291 L 397.921 248.291 Z" style="fill: rgb(255, 255, 255);"/>
</svg>