<svg xmlns="http://www.w3.org/2000/svg"  viewBox="0 0 48 48" width="48px" height="48px"><path fill="#ffcc80" d="M0,44.957v-12.83l15.975-12.72c1.723-1.372,4.201-1.232,5.758,0.326l0,0	C23.502,21.502,22.879,25.349,21,27L0,44.957z"/><path fill="#f2a25a" d="M22.765,22.313c-0.061-0.998-0.382-1.93-1.032-2.579c-1.557-1.557-4.035-1.697-5.758-0.326	l-2.722,2.168c-0.739,1.181-0.42,2.615,0.465,3.763c0.841,1.09,3.213,1.117,5.073,0.67L0,44v0.957L21,27	c1.186-1.042,1.854-2.953,1.754-4.669L22.765,22.313z"/><path fill="#f50057" d="M25.555,14.877c-0.685-0.933-1.998-1.135-2.931-0.449l-8.6,6.315	c-0.131,0.098-0.27,0.217-0.387,0.339c-1.153,1.198-1.117,3.104,0.08,4.257s4.104,1.117,5.257-0.08L26,18	C26.696,17.279,26.169,15.712,25.555,14.877z"/><path fill="#ff80ab" d="M25.555,14.877c-0.685-0.933-1.998-1.135-2.931-0.449l-8.6,6.315	c-0.131,0.098-0.27,0.217-0.387,0.339c-1.153,1.198-1.117,3.104,0.08,4.257c0.011,0.011,0.025,0.018,0.036,0.028	C13.754,25.367,25.61,14.951,25.555,14.877z"/><path fill="#ffcc80" d="M0,48v-3.043L24,24c2.082-1.856,5.542-2.458,7.514-0.486l0,0c2.156,2.156,2.035,5.686-0.264,7.69	L11.979,48H0z"/><path fill="#ffcc80" d="M11.979,48l16.438-14.779c2.009-1.806,5.08-1.725,6.99,0.186l0,0c1.984,1.984,1.984,5.202,0,7.186	L28,48H11.979z"/><path fill="#f2a25a" d="M33.056,26.966c-0.001-0.014-0.032-1.992-1.518-3.478l-0.024,0.026	C29.542,21.542,26.082,22.144,24,24l-1.63,1.423l-0.117,0.152c-0.739,1.181-0.579,2.757,0.465,3.763	c0.999,0.962,4.696,1.467,7.637-0.128L11,48h0.979l19.272-16.796C32.519,30.098,33.128,28.534,33.056,26.966z"/><path fill="#f2a25a" d="M36.804,36.047L36.804,36.047c-0.176-0.973-0.643-1.886-1.397-2.64v0	c-1.91-1.91-4.981-1.992-6.99-0.186l-0.909,0.818l-0.254,0.537c-0.739,1.181-0.579,2.757,0.465,3.763	c0.8,0.77,3.329,1.692,5.815,1.327L26,48h2l7.407-7.407C36.643,39.357,37.107,37.643,36.804,36.047z"/><path fill="#f50057" d="M36,22c0.709-0.732,0.185-3.33-0.452-4.165c-0.701-0.92-2.016-1.098-2.936-0.397l-9.605,7.319	c-0.114,0.088-0.236,0.195-0.339,0.302c-1.155,1.194-1.123,3.099,0.071,4.254S27.845,30.194,29,29L36,22z"/><path fill="#ff80ab" d="M32.612,17.438l-9.605,7.319c-0.114,0.088-0.236,0.195-0.339,0.302	c-1.004,1.038-1.109,2.612-0.335,3.765l12.859-11.347C34.459,16.887,33.395,16.842,32.612,17.438z"/><path fill="#f50057" d="M38.477,27.794c-0.741-0.891-2.064-1.013-2.955-0.272l-7.644,6.356	c-0.135,0.113-0.274,0.25-0.39,0.39c-1.064,1.279-0.889,3.179,0.39,4.243s4.179,0.889,5.243-0.39L39,31	C39.635,30.238,39.134,28.585,38.477,27.794z"/><path fill="#ff80ab" d="M35.523,27.523l-7.644,6.356c-0.135,0.113-0.274,0.25-0.39,0.39c-0.86,1.034-0.897,2.467-0.209,3.543	l10.999-10.213C37.517,26.898,36.34,26.843,35.523,27.523z"/><path fill="#c51162" d="M47,3h-4l-4,19c0,0-3,1-3,6v2c0,0,6,0,5-8L47,3z"/><path fill="#f50057" d="M36,30c0,0,1-4,4-8l5-17l-2-2l-4,19C39,22,35,23,36,30z"/><path fill="#37474f" d="M40,0l-0.846,5.074c-0.106,0.635,0.098,1.285,0.548,1.745c1.863,1.904,4.558,2.804,7.229,2.359L48,9	V0H40z"/><path fill="#546e7a" d="M44.561,0H40l-0.846,5.074c-0.106,0.635,0.098,1.285,0.548,1.745	c1.063,1.086,2.401,1.832,3.846,2.201L44.561,0z"/></svg>